<svg width="50" height="50" viewBox="0 0 75 75" fill="none" xmlns="http://www.w3.org/2000/svg">
<path d="M9.18698 12.9109C4.47084 18.3413 1.41585 25.0134 0.386231 32.1317C-0.64339 39.2501 0.395797 46.5144 3.3799 53.0586C6.364 59.6027 11.1671 65.1507 17.2166 69.041C23.2661 72.9313 30.3068 74.9999 37.4992 75C44.6917 75.0001 51.7324 72.9319 57.7821 69.0418C63.8317 65.1518 68.6351 59.604 71.6195 53.06C74.6038 46.5159 75.6433 39.2517 74.614 32.1333C73.5847 25.0149 70.53 18.3427 65.814 12.9121L37.5 37.5L9.18698 12.9109Z" fill="#FF1E56"/>
<path d="M60.2043 57.109C63.9672 52.7522 66.3971 47.4046 67.2039 41.7045C68.0107 36.0044 67.1605 30.1926 64.7546 24.9625C62.3486 19.7324 58.4887 15.305 53.6354 12.2087C48.7821 9.11238 43.1403 7.47787 37.3835 7.50023C31.6266 7.52258 25.9978 9.20087 21.1686 12.3348C16.3395 15.4687 12.5141 19.926 10.1489 25.1746C7.78367 30.4232 6.97856 36.2415 7.82965 41.9351C8.68073 47.6287 11.1521 52.9573 14.9487 57.2848L37.5 37.5L60.2043 57.109Z" fill="white"/>
<circle cx="37.5" cy="37.5" r="22.5" fill="#000"/>
<circle cx="37.5" cy="37.5" r="15" fill="#FF1E56"/>
<path d="M43.776 29.2V46H42.312L31.512 32.368V46H29.736V29.2H31.2L42.024 42.832V29.2H43.776Z" fill="white"/>
<path d="M43.776 29.2H44.776V28.2H43.776V29.2ZM43.776 46V47H44.776V46H43.776ZM42.312 46L41.5282 46.621L41.8285 47H42.312V46ZM31.512 32.368L32.2958 31.747L30.512 29.4954V32.368H31.512ZM31.512 46V47H32.512V46H31.512ZM29.736 46H28.736V47H29.736V46ZM29.736 29.2V28.2H28.736V29.2H29.736ZM31.2 29.2L31.9832 28.5782L31.6829 28.2H31.2V29.2ZM42.024 42.832L41.2409 43.4538L43.024 45.6996V42.832H42.024ZM42.024 29.2V28.2H41.024V29.2H42.024ZM42.776 29.2V46H44.776V29.2H42.776ZM43.776 45H42.312V47H43.776V45ZM43.0958 45.379L32.2958 31.747L30.7282 32.989L41.5282 46.621L43.0958 45.379ZM30.512 32.368V46H32.512V32.368H30.512ZM31.512 45H29.736V47H31.512V45ZM30.736 46V29.2H28.736V46H30.736ZM29.736 30.2H31.2V28.2H29.736V30.2ZM30.4168 29.8218L41.2409 43.4538L42.8072 42.2102L31.9832 28.5782L30.4168 29.8218ZM43.024 42.832V29.2H41.024V42.832H43.024ZM42.024 30.2H43.776V28.2H42.024V30.2Z" fill="white"/>
</svg>
